<svg xmlns="http://www.w3.org/2000/svg" xmlns:xlink="http://www.w3.org/1999/xlink" width="400" zoomAndPan="magnify" viewBox="0 0 300 299.999988" height="400" preserveAspectRatio="xMidYMid meet" version="1.0"><defs><clipPath id="d6ff439b08"><path d="M 31 17.59375 L 269.335938 17.59375 L 269.335938 282.34375 L 31 282.34375 Z M 31 17.59375 " clip-rule="nonzero"/></clipPath></defs><rect x="-30" width="360" fill="#ffffff" y="-29.999999" height="359.999986" fill-opacity="1"/><rect x="-30" width="360" fill="#ffffff" y="-29.999999" height="359.999986" fill-opacity="1"/><g clip-path="url(#d6ff439b08)"><path fill="#000000" d="M 43.265625 29.128906 C 44.175781 28.0625 44.710938 26.671875 44.710938 25.125 C 44.710938 21.707031 41.929688 18.929688 38.507812 18.929688 C 35.089844 18.929688 32.363281 21.707031 32.363281 25.125 C 32.363281 28.542969 35.140625 31.316406 38.5625 31.316406 C 40.058594 31.316406 41.503906 30.785156 42.570312 29.875 L 38.242188 25.550781 C 38.027344 25.335938 38.027344 25.015625 38.242188 24.855469 C 38.457031 24.644531 38.777344 24.644531 38.9375 24.855469 Z M 148.988281 90.429688 C 149.363281 90.429688 149.683594 90.109375 149.632812 89.734375 C 149.632812 89.363281 149.308594 89.042969 148.9375 89.09375 C 148.5625 89.09375 148.242188 89.414062 148.292969 89.789062 C 148.347656 90.164062 148.667969 90.484375 148.988281 90.429688 Z M 153 90.539062 C 153.371094 90.539062 153.691406 90.269531 153.691406 89.894531 C 153.691406 89.523438 153.425781 89.203125 153.050781 89.203125 C 152.675781 89.203125 152.355469 89.46875 152.355469 89.84375 C 152.355469 90.214844 152.625 90.539062 153 90.539062 Z M 145.035156 90.644531 C 145.410156 90.589844 145.675781 90.269531 145.675781 89.894531 C 145.621094 89.523438 145.300781 89.253906 144.925781 89.253906 C 144.554688 89.308594 144.285156 89.628906 144.285156 90.003906 C 144.339844 90.378906 144.660156 90.644531 145.035156 90.644531 Z M 157.007812 90.910156 C 157.382812 90.964844 157.703125 90.699219 157.753906 90.324219 C 157.808594 89.949219 157.542969 89.628906 157.167969 89.574219 C 156.792969 89.523438 156.472656 89.789062 156.417969 90.164062 C 156.367188 90.484375 156.632812 90.859375 157.007812 90.910156 Z M 141.027344 91.070312 C 141.398438 91.019531 141.667969 90.699219 141.613281 90.324219 C 141.558594 89.949219 141.238281 89.683594 140.863281 89.734375 C 140.492188 89.789062 140.222656 90.109375 140.277344 90.484375 C 140.332031 90.910156 140.703125 91.125 141.027344 91.070312 Z M 160.960938 91.5 C 161.335938 91.550781 161.65625 91.339844 161.765625 90.964844 C 161.816406 90.589844 161.605469 90.269531 161.230469 90.164062 C 160.855469 90.109375 160.535156 90.324219 160.429688 90.699219 C 160.320312 91.070312 160.589844 91.445312 160.960938 91.5 Z M 137.125 91.820312 C 137.496094 91.710938 137.710938 91.390625 137.660156 91.019531 C 137.550781 90.644531 137.230469 90.429688 136.855469 90.484375 C 136.480469 90.539062 136.269531 90.910156 136.320312 91.285156 C 136.375 91.660156 136.75 91.871094 137.125 91.820312 Z M 164.863281 92.40625 C 165.238281 92.511719 165.613281 92.300781 165.664062 91.925781 C 165.773438 91.550781 165.558594 91.179688 165.183594 91.125 C 164.8125 91.070312 164.4375 91.230469 164.382812 91.605469 C 164.277344 91.925781 164.488281 92.300781 164.863281 92.40625 Z M 133.222656 92.832031 C 133.597656 92.726562 133.808594 92.351562 133.703125 91.980469 C 133.597656 91.605469 133.222656 91.390625 132.847656 91.5 C 132.472656 91.605469 132.261719 91.980469 132.367188 92.351562 C 132.527344 92.726562 132.902344 92.941406 133.222656 92.832031 Z M 168.660156 93.582031 C 169.035156 93.6875 169.40625 93.527344 169.515625 93.152344 C 169.621094 92.78125 169.460938 92.40625 169.085938 92.300781 C 168.710938 92.191406 168.339844 92.351562 168.230469 92.726562 C 168.125 93.046875 168.339844 93.472656 168.660156 93.582031 Z M 129.425781 94.0625 C 129.800781 93.953125 129.960938 93.527344 129.800781 93.207031 C 129.695312 92.832031 129.265625 92.671875 128.945312 92.832031 C 128.570312 92.941406 128.410156 93.367188 128.570312 93.6875 C 128.730469 94.007812 129.105469 94.222656 129.425781 94.0625 Z M 172.402344 94.96875 C 172.722656 95.128906 173.148438 94.96875 173.308594 94.59375 C 173.46875 94.273438 173.308594 93.847656 172.933594 93.6875 C 172.613281 93.527344 172.1875 93.6875 172.027344 94.0625 C 171.917969 94.433594 172.078125 94.863281 172.402344 94.96875 Z M 125.738281 95.609375 C 126.058594 95.449219 126.21875 95.074219 126.058594 94.703125 C 125.898438 94.382812 125.523438 94.222656 125.152344 94.382812 C 124.832031 94.542969 124.671875 94.914062 124.832031 95.289062 C 124.992188 95.609375 125.417969 95.71875 125.738281 95.609375 Z M 176.035156 96.679688 C 176.355469 96.839844 176.785156 96.730469 176.945312 96.359375 C 177.105469 96.039062 176.996094 95.609375 176.625 95.449219 C 176.300781 95.289062 175.875 95.394531 175.714844 95.769531 C 175.554688 96.089844 175.714844 96.519531 176.035156 96.679688 Z M 122.15625 97.371094 C 122.476562 97.210938 122.585938 96.785156 122.425781 96.464844 C 122.265625 96.144531 121.835938 96.039062 121.515625 96.199219 C 121.195312 96.359375 121.089844 96.785156 121.25 97.105469 C 121.410156 97.425781 121.835938 97.53125 122.15625 97.371094 Z M 179.5625 98.601562 C 179.882812 98.8125 180.3125 98.707031 180.472656 98.386719 C 180.683594 98.066406 180.578125 97.640625 180.257812 97.480469 C 179.9375 97.265625 179.507812 97.371094 179.347656 97.691406 C 179.136719 97.960938 179.242188 98.386719 179.5625 98.601562 Z M 118.683594 99.347656 C 119.003906 99.132812 119.109375 98.761719 118.898438 98.441406 C 118.683594 98.121094 118.308594 98.011719 117.988281 98.226562 C 117.667969 98.441406 117.5625 98.8125 117.773438 99.132812 C 117.988281 99.453125 118.363281 99.5625 118.683594 99.347656 Z M 182.929688 100.734375 C 183.25 100.949219 183.679688 100.84375 183.890625 100.574219 C 184.105469 100.253906 184.050781 99.828125 183.730469 99.613281 C 183.410156 99.402344 182.984375 99.507812 182.769531 99.773438 C 182.554688 100.09375 182.609375 100.523438 182.929688 100.734375 Z M 186.136719 103.085938 C 186.40625 103.300781 186.832031 103.246094 187.097656 102.980469 C 187.3125 102.710938 187.257812 102.285156 186.992188 102.019531 C 186.726562 101.804688 186.296875 101.859375 186.03125 102.125 C 185.816406 102.445312 185.816406 102.871094 186.136719 103.085938 Z M 189.183594 105.703125 C 189.449219 105.96875 189.878906 105.914062 190.144531 105.648438 C 190.414062 105.382812 190.359375 104.953125 190.09375 104.6875 C 189.824219 104.421875 189.398438 104.472656 189.128906 104.742188 C 188.863281 105.007812 188.917969 105.433594 189.183594 105.703125 Z M 192.015625 108.480469 C 192.285156 108.746094 192.710938 108.746094 192.980469 108.480469 C 193.246094 108.210938 193.246094 107.785156 192.980469 107.519531 C 192.710938 107.25 192.285156 107.25 192.015625 107.519531 C 191.804688 107.785156 191.804688 108.210938 192.015625 108.480469 Z M 194.6875 111.46875 C 194.902344 111.738281 195.332031 111.789062 195.652344 111.578125 C 195.917969 111.363281 195.972656 110.933594 195.757812 110.613281 C 195.542969 110.347656 195.117188 110.292969 194.796875 110.507812 C 194.527344 110.773438 194.476562 111.203125 194.6875 111.46875 Z M 197.148438 114.621094 C 197.363281 114.941406 197.789062 114.992188 198.109375 114.78125 C 198.429688 114.566406 198.484375 114.140625 198.269531 113.820312 C 198.054688 113.5 197.628906 113.445312 197.308594 113.660156 C 197.039062 113.871094 196.933594 114.300781 197.148438 114.621094 Z M 199.394531 117.929688 C 199.605469 118.25 199.980469 118.359375 200.300781 118.144531 C 200.621094 117.929688 200.730469 117.558594 200.515625 117.238281 C 200.300781 116.917969 199.925781 116.808594 199.605469 117.023438 C 199.285156 117.183594 199.230469 117.609375 199.394531 117.929688 Z M 201.421875 121.402344 C 201.585938 121.722656 202.011719 121.828125 202.332031 121.667969 C 202.652344 121.507812 202.761719 121.082031 202.601562 120.761719 C 202.4375 120.441406 202.011719 120.332031 201.691406 120.492188 C 201.371094 120.652344 201.261719 121.027344 201.421875 121.402344 Z M 203.1875 124.980469 C 203.347656 125.300781 203.722656 125.460938 204.097656 125.300781 C 204.417969 125.140625 204.578125 124.765625 204.417969 124.390625 C 204.257812 124.070312 203.882812 123.910156 203.507812 124.070312 C 203.1875 124.230469 203.027344 124.605469 203.1875 124.980469 Z M 204.683594 128.664062 C 204.792969 129.039062 205.21875 129.199219 205.539062 129.039062 C 205.914062 128.929688 206.074219 128.503906 205.914062 128.183594 C 205.808594 127.808594 205.378906 127.648438 205.058594 127.808594 C 204.738281 127.917969 204.578125 128.289062 204.683594 128.664062 Z M 205.96875 132.453125 C 206.074219 132.828125 206.449219 133.042969 206.820312 132.9375 C 207.195312 132.828125 207.410156 132.453125 207.304688 132.082031 C 207.195312 131.707031 206.820312 131.492188 206.449219 131.601562 C 206.074219 131.707031 205.859375 132.082031 205.96875 132.453125 Z M 206.984375 136.300781 C 207.089844 136.671875 207.410156 136.886719 207.785156 136.832031 C 208.160156 136.726562 208.371094 136.40625 208.320312 136.03125 C 208.265625 135.660156 207.890625 135.445312 207.515625 135.5 C 207.089844 135.605469 206.875 135.980469 206.984375 136.300781 Z M 207.675781 140.25 C 207.730469 140.625 208.050781 140.890625 208.425781 140.839844 C 208.800781 140.785156 209.066406 140.464844 209.011719 140.089844 C 208.960938 139.71875 208.640625 139.449219 208.265625 139.503906 C 207.890625 139.558594 207.625 139.878906 207.675781 140.25 Z M 208.160156 144.203125 C 208.210938 144.578125 208.53125 144.84375 208.90625 144.84375 C 209.28125 144.789062 209.546875 144.46875 209.546875 144.097656 C 209.496094 143.722656 209.175781 143.457031 208.800781 143.457031 C 208.371094 143.507812 208.105469 143.828125 208.160156 144.203125 Z M 208.320312 148.207031 C 208.320312 148.582031 208.640625 148.902344 209.011719 148.847656 C 209.386719 148.847656 209.707031 148.527344 209.65625 148.152344 C 209.65625 147.78125 209.335938 147.460938 208.960938 147.511719 C 208.640625 147.511719 208.320312 147.832031 208.320312 148.207031 Z M 208.265625 152.210938 C 208.265625 152.585938 208.53125 152.90625 208.90625 152.90625 C 209.28125 152.90625 209.601562 152.640625 209.601562 152.265625 C 209.601562 151.890625 209.335938 151.570312 208.960938 151.570312 C 208.585938 151.519531 208.265625 151.839844 208.265625 152.210938 Z M 207.890625 156.164062 C 207.835938 156.539062 208.105469 156.859375 208.480469 156.910156 C 208.851562 156.964844 209.175781 156.699219 209.226562 156.324219 C 209.28125 155.949219 209.011719 155.628906 208.640625 155.578125 C 208.265625 155.523438 207.945312 155.789062 207.890625 156.164062 Z M 207.25 160.117188 C 207.195312 160.488281 207.410156 160.808594 207.785156 160.917969 C 208.160156 160.96875 208.480469 160.757812 208.585938 160.382812 C 208.640625 160.007812 208.425781 159.6875 208.050781 159.582031 C 207.675781 159.527344 207.355469 159.742188 207.25 160.117188 Z M 106.976562 144.46875 C 101.6875 144.46875 97.410156 148.742188 97.410156 154.027344 C 97.410156 159.316406 101.6875 163.585938 106.976562 163.585938 C 112.269531 163.585938 116.546875 159.316406 116.546875 154.027344 C 116.597656 148.742188 112.269531 144.46875 106.976562 144.46875 Z M 206.394531 164.011719 C 206.289062 164.386719 206.5 164.761719 206.875 164.816406 C 207.25 164.921875 207.625 164.707031 207.675781 164.332031 C 207.785156 163.960938 207.570312 163.585938 207.195312 163.53125 C 206.820312 163.425781 206.449219 163.640625 206.394531 164.011719 Z M 154.867188 167.164062 L 147.707031 160.007812 C 148.453125 159.582031 149.363281 159.316406 150.324219 159.316406 C 153.210938 159.316406 155.5625 161.664062 155.5625 164.546875 C 155.5625 165.507812 155.296875 166.363281 154.867188 167.164062 Z M 205.21875 167.859375 C 205.113281 168.230469 205.273438 168.605469 205.644531 168.710938 C 206.019531 168.820312 206.394531 168.660156 206.5 168.285156 C 206.609375 167.910156 206.449219 167.539062 206.074219 167.429688 C 205.699219 167.324219 205.324219 167.484375 205.21875 167.859375 Z M 146.585938 160.808594 L 154.015625 168.230469 C 153.050781 169.191406 151.769531 169.78125 150.273438 169.78125 C 147.386719 169.78125 145.035156 167.429688 145.035156 164.546875 C 145.035156 163.105469 145.621094 161.769531 146.585938 160.808594 Z M 203.777344 171.597656 C 203.613281 171.917969 203.777344 172.34375 204.148438 172.503906 C 204.46875 172.664062 204.898438 172.503906 205.058594 172.128906 C 205.21875 171.808594 205.058594 171.382812 204.683594 171.222656 C 204.308594 171.0625 203.9375 171.222656 203.777344 171.597656 Z M 202.117188 175.226562 C 201.957031 175.546875 202.066406 175.976562 202.4375 176.136719 C 202.761719 176.296875 203.1875 176.1875 203.347656 175.816406 C 203.507812 175.496094 203.402344 175.066406 203.027344 174.90625 C 202.707031 174.746094 202.277344 174.851562 202.117188 175.226562 Z M 200.195312 178.699219 C 199.980469 179.019531 200.085938 179.445312 200.410156 179.605469 C 200.730469 179.820312 201.15625 179.710938 201.316406 179.390625 C 201.476562 179.070312 201.421875 178.644531 201.101562 178.484375 C 200.78125 178.269531 200.410156 178.378906 200.195312 178.699219 Z M 198.054688 182.0625 C 197.84375 182.382812 197.949219 182.808594 198.214844 183.023438 C 198.539062 183.238281 198.964844 183.128906 199.179688 182.863281 C 199.394531 182.542969 199.285156 182.117188 199.019531 181.902344 C 198.699219 181.6875 198.269531 181.796875 198.054688 182.0625 Z M 195.652344 185.265625 C 195.4375 185.53125 195.492188 185.960938 195.757812 186.226562 C 196.023438 186.441406 196.453125 186.386719 196.71875 186.121094 C 196.933594 185.855469 196.878906 185.425781 196.613281 185.160156 C 196.292969 184.945312 195.917969 185 195.652344 185.265625 Z M 193.085938 188.308594 C 192.820312 188.578125 192.871094 189.003906 193.140625 189.269531 C 193.40625 189.539062 193.832031 189.484375 194.101562 189.21875 C 194.367188 188.949219 194.316406 188.523438 194.046875 188.257812 C 193.726562 188.042969 193.300781 188.042969 193.085938 188.308594 Z M 190.304688 191.195312 C 190.039062 191.460938 190.039062 191.886719 190.304688 192.15625 C 190.574219 192.421875 191 192.421875 191.269531 192.15625 C 191.535156 191.886719 191.535156 191.460938 191.269531 191.195312 C 191 190.925781 190.574219 190.925781 190.304688 191.195312 Z M 187.3125 193.863281 C 187.046875 194.078125 186.992188 194.503906 187.207031 194.824219 C 187.421875 195.089844 187.847656 195.144531 188.167969 194.929688 C 188.433594 194.71875 188.488281 194.289062 188.273438 193.96875 C 188.007812 193.648438 187.582031 193.597656 187.3125 193.863281 Z M 190.949219 203.207031 C 207.355469 190.765625 217.941406 171.117188 217.941406 148.957031 C 217.941406 111.363281 187.421875 80.871094 149.792969 80.871094 C 134.398438 80.871094 120.234375 85.945312 108.796875 94.542969 L 167.910156 153.601562 C 169.085938 152.640625 170.582031 152 172.1875 152 C 175.820312 152 178.761719 154.9375 178.761719 158.566406 C 178.761719 162.199219 175.820312 165.136719 172.1875 165.136719 C 168.550781 165.136719 165.613281 162.199219 165.613281 158.566406 C 165.613281 156.910156 166.199219 155.417969 167.214844 154.296875 L 107.992188 95.183594 C 103.289062 98.8125 99.066406 103.085938 95.488281 107.839844 L 146.746094 159.046875 C 147.761719 158.351562 149.042969 157.980469 150.324219 157.980469 C 153.960938 157.980469 156.898438 160.917969 156.898438 164.546875 C 156.898438 165.882812 156.527344 167.109375 155.832031 168.125 L 184.105469 196.375 L 184.160156 196.320312 C 184.480469 196.105469 184.90625 196.160156 185.121094 196.480469 C 185.335938 196.746094 185.28125 197.121094 185.066406 197.335938 Z M 94.632812 108.90625 C 86.453125 120.171875 81.589844 134.003906 81.589844 148.957031 C 81.589844 186.546875 112.109375 217.039062 149.738281 217.039062 C 164.703125 217.039062 178.546875 212.179688 189.824219 204.007812 L 154.976562 169.191406 C 153.800781 170.367188 152.144531 171.117188 150.324219 171.117188 C 146.691406 171.117188 143.75 168.179688 143.75 164.546875 C 143.75 162.730469 144.5 161.078125 145.675781 159.902344 Z M 43.53125 30.785156 L 107.03125 94.222656 C 102.328125 97.90625 98.105469 102.125 94.523438 106.878906 L 71.488281 83.863281 C 72.554688 82.582031 73.25 80.871094 73.25 79.054688 C 73.25 74.890625 69.882812 71.527344 65.714844 71.527344 C 61.546875 71.527344 58.179688 74.890625 58.179688 79.054688 C 58.179688 83.222656 61.546875 86.585938 65.714844 86.585938 C 67.53125 86.585938 69.242188 85.945312 70.523438 84.824219 L 93.667969 107.945312 C 85.222656 119.425781 80.253906 133.628906 80.253906 148.957031 C 80.253906 187.296875 111.414062 218.375 149.738281 218.375 C 165.078125 218.375 179.296875 213.40625 190.789062 204.96875 L 203.082031 217.25 C 188.757812 229.535156 170.101562 236.957031 149.738281 236.957031 C 104.519531 236.957031 67.800781 200.269531 67.800781 155.097656 C 67.800781 154.722656 67.480469 154.402344 67.105469 154.402344 C 66.730469 154.402344 66.410156 154.722656 66.410156 155.097656 C 66.410156 201.019531 103.71875 238.289062 149.683594 238.289062 C 170.421875 238.289062 189.398438 230.707031 203.9375 218.160156 L 267.914062 282.078125 C 268.183594 282.34375 268.609375 282.34375 268.878906 282.078125 C 269.144531 281.8125 269.144531 281.382812 268.878906 281.117188 L 205.058594 217.304688 C 222.214844 202.035156 233.066406 179.820312 233.066406 155.097656 C 233.066406 154.722656 232.746094 154.402344 232.371094 154.402344 C 231.996094 154.402344 231.675781 154.722656 231.675781 155.097656 C 231.675781 179.445312 220.988281 201.339844 204.097656 216.34375 L 191.910156 204.167969 C 208.53125 191.460938 219.277344 171.4375 219.277344 148.957031 C 219.277344 110.613281 188.113281 79.535156 149.792969 79.535156 C 134.023438 79.535156 119.539062 84.769531 107.832031 93.632812 L 44.226562 30.089844 C 45.402344 28.753906 46.097656 27.046875 46.097656 25.125 C 46.097656 20.957031 42.730469 17.59375 38.5625 17.59375 C 34.394531 17.59375 31.027344 20.957031 31.027344 25.125 C 31.027344 29.289062 34.394531 32.652344 38.5625 32.652344 C 40.433594 32.652344 42.195312 31.957031 43.53125 30.785156 Z M 43.53125 30.785156 " fill-opacity="1" fill-rule="evenodd"/></g></svg>