<svg viewBox="0 0 1280 360" xmlns="http://www.w3.org/2000/svg" width="1280" height="360" role="img" aria-label="rin.contact — portfolio and playground">
  <defs>
    <pattern id="bdots" width="22" height="22" patternUnits="userSpaceOnUse">
      <circle cx="2" cy="2" r="1.05" fill="#FFFFFF" opacity="0.05"/>
    </pattern>
  </defs>
  <rect width="1280" height="360" fill="#0E0E0E"/>
  <rect width="1280" height="360" fill="url(#bdots)"/>

  <g stroke="#5A5A5A" stroke-width="1">
    <path d="M28 28 H46 M28 28 V46"/>
    <path d="M1252 28 H1234 M1252 28 V46"/>
    <path d="M28 332 H46 M28 332 V314"/>
    <path d="M1252 332 H1234 M1252 332 V314"/>
  </g>

  <g>
    <text x="1156" y="50" font-family="monospace" font-size="11" letter-spacing="2" fill="#6A6A6A">RISO</text>
    <rect x="1196" y="41" width="9" height="9" fill="#FF3C3C"/>
    <rect x="1207" y="41" width="9" height="9" fill="#EDEDED"/>
  </g>

  <text x="74" y="92" font-family="monospace" font-size="13" letter-spacing="4" fill="#FF3C3C">◆ &#160; PORTFOLIO &#183; PLAYGROUND</text>

  <text x="72" y="190" font-family="ui-monospace, 'SFMono-Regular', Menlo, monospace" font-size="92" font-weight="700" letter-spacing="-1">
    <tspan fill="#F5F3EE">rin</tspan><tspan fill="#FF3C3C">.</tspan><tspan fill="#8C8C8C">contact</tspan>
  </text>

  <text x="74" y="236" font-family="Georgia, 'Times New Roman', serif" font-style="italic" font-size="23" fill="#C7C2B8">Different ways into the same story.</text>

  <text x="74" y="286" font-family="monospace" font-size="13" letter-spacing="2" fill="#7C776E">STRATEGIC &#160;/&#160; CAREER &#160;/&#160; PROJECTS &#160;/&#160; LAB &#160;/&#160; ABOUT &#160;/&#160; RESUME</text>

  <text x="74" y="324" font-family="monospace" font-size="12" letter-spacing="2" fill="#565656">NEXT.JS 16 &#160;&#183;&#160; REACT 19 &#160;&#183;&#160; TAILWIND &#160;&#183;&#160; VERCEL</text>

  <g>
    <polyline points="880,112 1012,82 1132,142 1092,236 962,262 862,202 880,112" fill="none" stroke="#FFFFFF" stroke-opacity="0.14" stroke-width="1" stroke-dasharray="1 5"/>
    <g fill="#FF3C3C" opacity="0.5">
      <circle cx="980" cy="160" r="2"/><circle cx="1000" cy="150" r="2.4"/><circle cx="1020" cy="168" r="2"/>
      <circle cx="992" cy="182" r="2.2"/><circle cx="1014" cy="190" r="1.8"/><circle cx="970" cy="176" r="1.6"/>
      <circle cx="1034" cy="156" r="1.6"/>
    </g>
    <g fill="#EDEDED">
      <circle cx="880" cy="112" r="4"/><circle cx="1132" cy="142" r="4"/>
      <circle cx="1092" cy="236" r="4"/><circle cx="962" cy="262" r="4"/><circle cx="862" cy="202" r="4"/>
    </g>
    <g transform="translate(1012,82) rotate(45)"><rect x="-5" y="-5" width="10" height="10" fill="#FF3C3C"/></g>
    <circle cx="1012" cy="82" r="13" fill="#FF3C3C" opacity="0.14"/>
  </g>
</svg>
