<svg xmlns="http://www.w3.org/2000/svg" xmlns:xlink="http://www.w3.org/1999/xlink" width="400" zoomAndPan="magnify" viewBox="0 0 300 299.999988" height="400" preserveAspectRatio="xMidYMid meet" version="1.0"><defs><clipPath id="d3154fc14a"><path d="M 26.285156 35.097656 L 273.785156 35.097656 L 273.785156 264.597656 L 26.285156 264.597656 Z M 26.285156 35.097656 " clip-rule="nonzero"/></clipPath></defs><rect x="-30" width="360" fill="#ffffff" y="-29.999999" height="359.999986" fill-opacity="1"/><rect x="-30" width="360" fill="#ffffff" y="-29.999999" height="359.999986" fill-opacity="1"/><g clip-path="url(#d3154fc14a)"><path fill="#333333" d="M 269.558594 73.394531 L 251.074219 91.847656 C 250.820312 92.101562 250.632812 92.40625 250.515625 92.742188 C 243.992188 111.609375 223.890625 131.308594 200.617188 154.113281 L 199.671875 155.042969 C 195.796875 158.839844 191.730469 157.589844 189.214844 155.15625 C 187.339844 153.339844 186.140625 150.496094 187.449219 149.078125 L 210.566406 124.523438 C 211.449219 123.585938 211.40625 122.109375 210.472656 121.222656 C 209.535156 120.335938 208.058594 120.375 207.164062 121.304688 L 171.710938 158.316406 C 168.816406 160.414062 165.578125 158.882812 163.660156 156.90625 C 161.757812 154.941406 160.53125 151.835938 162.222656 149.5625 C 174.972656 137.21875 189.554688 121.273438 192.761719 117.746094 L 192.894531 117.597656 C 193.742188 116.6875 193.726562 115.273438 192.859375 114.378906 C 191.980469 113.476562 190.542969 113.425781 189.605469 114.269531 C 189.605469 114.269531 189.5625 114.308594 189.484375 114.390625 L 189.484375 114.386719 L 158.851562 146.292969 C 158.8125 146.335938 158.773438 146.378906 158.734375 146.421875 C 156.605469 148.480469 154.53125 150.433594 152.574219 152.203125 C 149.648438 154.851562 146.46875 153.691406 144.636719 151.894531 C 142.421875 149.722656 141.34375 145.894531 144.207031 142.628906 C 146.300781 140.234375 148.929688 137.382812 151.8125 134.328125 C 151.96875 134.230469 152.117188 134.113281 152.246094 133.980469 L 181.464844 104.238281 C 182.363281 103.320312 182.355469 101.851562 181.445312 100.941406 C 180.535156 100.035156 179.0625 100.027344 178.144531 100.929688 C 177.9375 101.136719 161.273438 117.519531 148.882812 130.609375 C 145.230469 132.5625 142.328125 131.433594 140.789062 129.660156 C 139.164062 127.785156 138.472656 124.480469 140.789062 121.652344 C 146.148438 115.105469 156.703125 104.183594 166.019531 94.546875 C 175.875 84.347656 181.507812 78.484375 182.621094 76.550781 C 183.097656 75.730469 183 74.710938 182.421875 73.960938 C 181.839844 73.207031 180.839844 72.890625 179.921875 73.140625 C 178.839844 73.433594 177.792969 73.921875 176.636719 74.671875 C 171.507812 77.992188 164.085938 82.246094 157.859375 83.648438 C 154.210938 84.46875 150.851562 84.09375 149.101562 82.664062 C 148.25 81.96875 147.847656 81.074219 147.871094 79.929688 C 147.902344 78.574219 148.609375 77.339844 149.808594 76.535156 C 155.570312 72.691406 183.496094 58.332031 190.554688 55.125 C 200.9375 50.414062 203.945312 50.667969 208.105469 51.027344 C 210.058594 51.191406 212.273438 51.378906 215.417969 51.179688 C 222.058594 50.75 233.234375 43.558594 236.738281 39.269531 C 237.554688 38.265625 237.402344 36.792969 236.398438 35.976562 C 235.398438 35.15625 233.917969 35.308594 233.101562 36.3125 C 230.242188 39.8125 220.277344 46.175781 215.117188 46.507812 C 212.320312 46.6875 210.382812 46.523438 208.507812 46.359375 C 203.820312 45.960938 200.113281 45.644531 188.613281 50.863281 C 181.273438 54.199219 153.261719 68.605469 147.203125 72.644531 C 144.710938 74.308594 143.246094 76.925781 143.183594 79.828125 C 143.128906 82.394531 144.175781 84.6875 146.132812 86.289062 C 149.0625 88.679688 153.714844 89.378906 158.890625 88.214844 C 162.308594 87.445312 165.984375 85.945312 169.484375 84.199219 C 167.289062 86.492188 164.917969 88.945312 162.644531 91.296875 C 153.941406 100.300781 144.167969 110.414062 138.421875 117.175781 C 134.621094 115.054688 129.105469 114.746094 123.652344 119.824219 C 119.511719 123.683594 115.277344 127.574219 111.042969 131.46875 C 83.824219 156.492188 58.117188 180.128906 51.765625 198.421875 C 49.957031 203.644531 31.597656 222.464844 27.28125 226.496094 C 26.335938 227.378906 26.285156 228.859375 27.171875 229.804688 C 27.632812 230.296875 28.257812 230.546875 28.882812 230.546875 C 29.457031 230.546875 30.03125 230.335938 30.484375 229.914062 C 30.710938 229.703125 53.617188 207.398438 56.199219 199.957031 C 62.160156 182.773438 88.625 158.441406 114.21875 134.910156 C 118.460938 131.011719 122.703125 127.113281 126.851562 123.246094 C 130.628906 119.726562 133.773438 120.144531 135.675781 121.023438 C 134.070312 124.371094 134.261719 128.21875 136.242188 131.363281 L 108.246094 159.59375 C 107.332031 160.511719 107.339844 161.996094 108.261719 162.90625 C 108.71875 163.355469 109.316406 163.582031 109.910156 163.582031 C 110.515625 163.582031 111.117188 163.351562 111.578125 162.890625 L 139.542969 134.6875 C 140.71875 135.4375 142.097656 136.007812 143.644531 136.234375 C 142.574219 137.40625 141.574219 138.519531 140.675781 139.546875 C 136.855469 143.910156 137.171875 149.144531 139.546875 152.96875 L 126.074219 166.195312 C 125.148438 167.101562 125.136719 168.582031 126.042969 169.503906 C 126.503906 169.96875 127.109375 170.203125 127.714844 170.203125 C 128.308594 170.203125 128.902344 169.980469 129.359375 169.53125 L 142.742188 156.398438 C 146.25 158.898438 151.363281 159.613281 155.722656 155.671875 C 156.152344 155.285156 156.585938 154.886719 157.027344 154.484375 C 157.375 155.878906 158.027344 157.261719 158.960938 158.5625 C 147.484375 169.628906 136.875 179.644531 136.765625 179.75 C 135.824219 180.636719 135.78125 182.121094 136.671875 183.058594 C 137.132812 183.546875 137.753906 183.789062 138.375 183.789062 C 138.953125 183.789062 139.53125 183.578125 139.984375 183.152344 C 140.097656 183.046875 150.765625 172.976562 162.285156 161.859375 C 164.289062 163.257812 166.515625 163.976562 168.703125 163.976562 C 170.824219 163.976562 172.90625 163.304688 174.699219 161.929688 C 174.792969 161.855469 174.882812 161.777344 174.964844 161.691406 L 182.734375 153.582031 C 183.105469 154.671875 183.699219 155.753906 184.460938 156.789062 C 178.007812 163.957031 165.261719 176.40625 153.949219 187.449219 C 142.832031 198.304688 136 205.003906 133.75 207.726562 C 131.148438 208.308594 129.074219 207.785156 126.277344 207.054688 C 122.230469 206 117.191406 204.683594 108.847656 206.621094 C 107.589844 206.914062 106.804688 208.171875 107.097656 209.429688 C 107.390625 210.691406 108.648438 211.480469 109.910156 211.179688 C 117.128906 209.507812 121.359375 210.609375 125.09375 211.582031 C 127.214844 212.136719 129.261719 212.667969 131.550781 212.667969 C 132.773438 212.667969 134.066406 212.515625 135.480469 212.132812 C 135.527344 212.121094 135.570312 212.097656 135.621094 212.078125 C 135.6875 212.066406 135.753906 212.054688 135.820312 212.035156 C 136.925781 211.707031 138.03125 211.183594 139.199219 210.433594 C 144.894531 206.769531 153.085938 202.050781 159.765625 200.375 C 164.460938 199.195312 167.507812 199.96875 168.796875 201.085938 C 169.53125 201.726562 169.832031 202.59375 169.707031 203.734375 C 169.546875 205.234375 168.597656 206.691406 167.167969 207.636719 C 160.21875 212.21875 133.332031 229.511719 125.933594 232.960938 C 113.699219 238.671875 108.054688 238.765625 101.519531 238.875 C 99.289062 238.910156 96.984375 238.949219 94.304688 239.203125 C 90.175781 239.59375 82.210938 245.292969 66.808594 258.882812 C 66.050781 259.550781 65.453125 260.078125 65.054688 260.421875 C 64.074219 261.265625 63.964844 262.742188 64.808594 263.722656 C 65.273438 264.257812 65.925781 264.535156 66.585938 264.535156 C 67.128906 264.535156 67.671875 264.347656 68.113281 263.96875 C 68.523438 263.617188 69.136719 263.074219 69.914062 262.390625 C 86.890625 247.414062 92.789062 244.046875 94.746094 243.863281 C 97.242188 243.625 99.457031 243.589844 101.597656 243.554688 C 108.375 243.441406 114.777344 243.335938 127.921875 237.203125 C 136.105469 233.382812 164.8125 214.800781 169.753906 211.542969 C 172.371094 209.8125 174.054688 207.148438 174.367188 204.238281 C 174.65625 201.574219 173.769531 199.203125 171.871094 197.554688 C 169.003906 195.066406 164.171875 194.4375 158.621094 195.835938 C 155.140625 196.710938 151.347656 198.296875 147.683594 200.140625 C 150.652344 197.214844 153.960938 193.988281 157.226562 190.796875 C 168.519531 179.769531 181.238281 167.347656 187.839844 160.039062 C 192.054688 162.886719 197.878906 163.359375 202.953125 158.382812 L 203.902344 157.457031 C 227.394531 134.433594 247.710938 114.527344 254.765625 94.78125 L 272.875 76.707031 C 273.789062 75.789062 273.789062 74.308594 272.875 73.394531 C 271.957031 72.480469 270.472656 72.480469 269.558594 73.394531 Z M 269.558594 73.394531 " fill-opacity="1" fill-rule="nonzero"/></g></svg>